<svg width="15" height="16" viewBox="0 0 15 16" fill="none" xmlns="http://www.w3.org/2000/svg">
    <g clip-path="url(#clip0)">
        <path d="M0 6.67875C0 5.87311 0.253776 5.15206 0.761329 4.51561C1.26888 3.87915 1.91205 3.47499 2.69084 3.30312C2.91104 2.33635 3.40651 1.54414 4.17724 0.926485C4.94797 0.308828 5.83014 0 6.82377 0C7.79053 0 8.65525 0.302115 9.41793 0.906344C10.1806 1.51057 10.6747 2.27996 10.9003 3.2145H11.1339C12.1007 3.2145 12.9251 3.55153 13.6073 4.22558C14.2894 4.89963 14.6304 5.71735 14.6304 6.67875C14.6304 7.19436 14.5243 7.68177 14.3122 8.14099C14.1 8.6002 13.806 8.99362 13.43 9.32125V9.34542C13.43 9.85566 13.2702 10.3108 12.9507 10.711C12.6311 11.1111 12.2296 11.3649 11.7462 11.4723C11.6227 12.0094 11.3622 12.4632 10.9648 12.8338C10.5673 13.2044 10.1 13.4327 9.56294 13.5186C9.81 13.814 9.93353 14.139 9.93353 14.4935C9.93353 14.907 9.78718 15.2615 9.49446 15.5569C9.20175 15.8523 8.84861 16 8.43505 16C8.02148 16 7.66835 15.8523 7.37563 15.5569C7.08291 15.2615 6.93656 14.907 6.93656 14.4935C6.93656 14.327 6.9661 14.1631 7.02518 14.002H6.93656C6.43706 14.002 6.00739 13.8221 5.64753 13.4622C5.28768 13.1024 5.10775 12.6727 5.10775 12.1732C5.10775 11.8295 5.19369 11.5233 5.36556 11.2548C4.91977 11.0077 4.59752 10.6506 4.39879 10.1833H3.30312V10.1752C2.37932 10.1161 1.59785 9.75092 0.958711 9.07956C0.31957 8.40819 0 7.60792 0 6.67875ZM1.2004 6.46928C1.2004 7.15676 1.44209 7.7422 1.92548 8.22558C2.40886 8.70896 2.99161 8.95065 3.67372 8.95065C4.09802 8.95065 4.4901 8.85398 4.84995 8.66062C4.952 9.29977 5.25008 9.83149 5.74421 10.2558C6.23833 10.6801 6.8184 10.8922 7.48439 10.8922C8.23095 10.8922 8.86741 10.6291 9.39376 10.1027C9.74824 10.5109 10.1887 10.715 10.715 10.715C11.2038 10.715 11.6213 10.5418 11.9678 10.1954C12.3142 9.84894 12.4874 9.43135 12.4874 8.9426C12.8312 8.71165 13.1024 8.4149 13.3011 8.05237C13.4998 7.68983 13.5992 7.29641 13.5992 6.8721C13.5992 6.19 13.3548 5.61128 12.8661 5.13595C12.3773 4.66062 11.7892 4.42296 11.1017 4.42296C10.6237 4.42296 10.186 4.54918 9.78852 4.80161C9.83686 4.59215 9.86103 4.36657 9.86103 4.12487C9.86103 3.29775 9.56563 2.59416 8.97482 2.0141C8.38402 1.43404 7.66969 1.14401 6.83182 1.14401C6.02618 1.14401 5.33065 1.4233 4.74522 1.98187C4.15979 2.54045 3.85364 3.21987 3.82679 4.02014C3.81067 4.02014 3.78651 4.0188 3.75428 4.01611C3.72205 4.01343 3.6952 4.01208 3.67372 4.01208C2.99698 4.01208 2.41558 4.25243 1.92951 4.73313C1.44344 5.21383 1.2004 5.79255 1.2004 6.46928Z"
              fill="white"/>
    </g>
    <defs>
        <clipPath id="clip0">
            <rect width="14.6304" height="16" fill="white"/>
        </clipPath>
    </defs>
</svg>
